<svg version="1.1" id="Layer_1" xmlns="http://www.w3.org/2000/svg" xmlns:xlink="http://www.w3.org/1999/xlink" x="0px" y="0px"
	 width="100%" viewBox="0 0 500 500" enable-background="new 0 0 500 500" xml:space="preserve">
<path fill="#FFFFFF" opacity="1.000000" stroke="none" 
	d="
M272.000000,501.000000 
	C181.333359,501.000000 91.166710,501.000000 1.000048,501.000000 
	C1.000032,334.333405 1.000032,167.666794 1.000016,1.000138 
	C167.666565,1.000092 334.333130,1.000092 500.999756,1.000046 
	C500.999847,167.666519 500.999847,334.333038 500.999939,500.999786 
	C424.833344,501.000000 348.666656,501.000000 272.000000,501.000000 
M162.309814,276.131622 
	C160.833878,274.796997 159.301895,273.518890 157.890381,272.119263 
	C135.649246,250.065552 113.424385,227.995422 91.192299,205.932587 
	C90.007477,204.756775 88.791779,203.612076 87.321945,202.193817 
	C87.321945,293.538422 87.321945,384.020782 87.321945,475.195038 
	C112.251015,446.419800 136.702576,418.263367 160.995178,389.970428 
	C162.313309,388.435242 162.824585,385.760040 162.831268,383.612762 
	C162.941956,347.959747 162.911728,312.306305 163.821152,276.962128 
	C194.479233,276.976105 225.137558,277.040955 255.794769,276.884186 
	C257.740143,276.874268 260.226959,275.624390 261.533905,274.136322 
	C278.131989,255.238190 294.566010,236.195877 311.027130,217.177597 
	C315.313568,212.225327 319.549530,207.229355 324.222198,201.770325 
	C269.966095,201.770325 216.587418,201.770325 163.005859,201.770325 
	C163.005859,226.728104 163.005859,251.372971 162.309814,276.131622 
M249.500000,51.000225 
	C195.416290,51.000225 141.332581,51.000225 87.194199,51.000225 
	C87.194199,76.630966 87.194199,101.701920 87.194199,127.164177 
	C88.568832,127.164177 89.702644,127.164177 90.836449,127.164177 
	C188.963196,127.164253 287.089996,127.185524 385.216492,127.029686 
	C387.437347,127.026161 390.274780,125.561417 391.779968,123.856178 
	C410.515686,102.629631 429.114105,81.280518 447.560242,59.801834 
	C449.358276,57.708221 449.910248,54.544456 451.412415,51.000225 
	C383.394409,51.000225 316.947205,51.000225 249.500000,51.000225 
z"/>
<path fill="#004AAD" opacity="1.000000" stroke="none" 
	d="
M250.000000,51.000225 
	C316.947205,51.000225 383.394409,51.000225 451.412415,51.000225 
	C449.910248,54.544456 449.358276,57.708221 447.560242,59.801834 
	C429.114105,81.280518 410.515686,102.629631 391.779968,123.856178 
	C390.274780,125.561417 387.437347,127.026161 385.216492,127.029686 
	C287.089996,127.185524 188.963196,127.164253 90.836449,127.164177 
	C89.702644,127.164177 88.568832,127.164177 87.194199,127.164177 
	C87.194199,101.701920 87.194199,76.630966 87.194199,51.000225 
	C141.332581,51.000225 195.416290,51.000225 250.000000,51.000225 
z"/>
<path fill="#014AAD" opacity="1.000000" stroke="none" 
	d="
M162.912979,276.652954 
	C162.911728,312.306305 162.941956,347.959747 162.831268,383.612762 
	C162.824585,385.760040 162.313309,388.435242 160.995178,389.970428 
	C136.702576,418.263367 112.251015,446.419800 87.321945,475.195038 
	C87.321945,384.020782 87.321945,293.538422 87.321945,202.193817 
	C88.791779,203.612076 90.007477,204.756775 91.192299,205.932587 
	C113.424385,227.995422 135.649246,250.065552 157.890381,272.119263 
	C159.301895,273.518890 160.833878,274.796997 162.640274,276.234314 
	C162.970734,276.337036 162.912979,276.652954 162.912979,276.652954 
z"/>
<path fill="#024CAE" opacity="1.000000" stroke="none" 
	d="
M163.367065,276.807556 
	C162.912979,276.652954 162.970734,276.337036 162.988297,276.177429 
	C163.005859,251.372971 163.005859,226.728104 163.005859,201.770325 
	C216.587418,201.770325 269.966095,201.770325 324.222198,201.770325 
	C319.549530,207.229355 315.313568,212.225327 311.027130,217.177597 
	C294.566010,236.195877 278.131989,255.238190 261.533905,274.136322 
	C260.226959,275.624390 257.740143,276.874268 255.794769,276.884186 
	C225.137558,277.040955 194.479233,276.976105 163.367065,276.807556 
z"/>
</svg>